<svg xmlns="http://www.w3.org/2000/svg" width="99" height="94" viewBox="0 0 99 94">
    <g fill="#FFF" fill-rule="nonzero">
        <path d="M40.32 32.814c.12.507.491.92.986 1.092a1.546 1.546 0 0 0 1.459-.238l4.035-3.165v19.541h-5.056c-.407.001-.797.161-1.086.446a1.544 1.544 0 0 0-.45 1.077v4.91c.01.837.692 1.513 1.536 1.523h20.72A1.548 1.548 0 0 0 64 56.478v-4.911a1.47 1.47 0 0 0-.45-1.068 1.523 1.523 0 0 0-1.086-.455h-4.99V20.523c0-.409-.166-.8-.46-1.087A1.544 1.544 0 0 0 55.91 19h-6.554a1.51 1.51 0 0 0-.87.27l-8.905 6.108a1.506 1.506 0 0 0-.524 1.597l1.264 5.84zm9.148-12.124h6.302v31.044h6.554v4.576H41.913v-4.576h6.554v-24.76l-6.554 5.162-1.208-5.467 8.763-5.979z"/>
        <path d="M.077 77.31c.173.563.669.967 1.256 1.023l12.812 1.042.397 11.86c.02.56.361 1.06.877 1.281.18.08.376.121.573.12.357 0 .702-.131.969-.369l23.835-21.5 1.144 3.124a3.294 3.294 0 0 0 3.028 2.442 3.583 3.583 0 0 0 2.723-1.465l4.237-5.17a1.847 1.847 0 0 1 1.403-.682c.453 0 .888.171 1.219.48l4.957 4.497a3.695 3.695 0 0 0 2.492 1.069 2.902 2.902 0 0 0 1.782-.618l17.234 19.077c.275.306.668.48 1.08.479a1.43 1.43 0 0 0 1.44-1.281l1.394-11.621 12.767-1.18a1.436 1.436 0 1 0 .923-2.405L77.388 54.05s0-.101.073-.157a1.846 1.846 0 0 1 1.164-.838l6.461-1.521a3.149 3.149 0 1 0 1.662-5.585l-4.616-4.82a1.768 1.768 0 0 1-.517-1.336c.029-.498.259-.964.637-1.29l5.059-4.368a3.435 3.435 0 0 0 1.338-3.235 3.44 3.44 0 0 0-2.464-2.488l-6.342-2.11a1.845 1.845 0 0 1-1.09-.922 1.84 1.84 0 0 1 0-1.438l2.484-6.23a3.46 3.46 0 0 0-.185-3.299 3.317 3.317 0 0 0-3.508-1.235l-6.6 1.06a1.793 1.793 0 0 1-2.095-1.585l-.73-6.644c-.23-2.184-1.698-3.17-3.046-3.17a3.853 3.853 0 0 0-2.298.847l-5.327 4.018a1.849 1.849 0 0 1-2.603-.442l-3.692-5.53A3.472 3.472 0 0 0 48.263 0a3.341 3.341 0 0 0-2.972 2.156l-2.825 6.028a1.845 1.845 0 0 1-2.501.82l-5.927-3.18a3.318 3.318 0 0 0-4.052.341 3.609 3.609 0 0 0-.923 2.765l.268 6.672a1.777 1.777 0 0 1-1.847 1.843l-6.757-.083a3.39 3.39 0 0 0-3.083 1.558 3.387 3.387 0 0 0 .203 3.474l3.388 5.806c.247.43.31.942.175 1.42a1.77 1.77 0 0 1-.923 1.096l-5.954 3.032a3.438 3.438 0 0 0-2.077 2.82 3.455 3.455 0 0 0 1.8 3.004l5.659 3.576a1.797 1.797 0 0 1 .508 2.57l-3.877 5.457a3.157 3.157 0 0 0-.52 3.465 3.167 3.167 0 0 0 3.003 1.815l2.686.221L.483 75.771a1.436 1.436 0 0 0-.406 1.54zm77.781-11.482c.089-.097.172-.199.25-.305.248-.168.469-.373.655-.608a3.552 3.552 0 0 0 .415-3.17l-.6-2.074 15.933 17.64-11.05 1.022a1.457 1.457 0 0 0-1.301 1.281l-1.135 9.594-15.86-17.51 1.238-6.018c.045-.209.126-.409.24-.59.393-.21.852-.262 1.283-.147l6.461 1.677c1.215.396 2.55.091 3.471-.792zM19.223 53.626a1.137 1.137 0 0 1-.647-.194v-.055a1.39 1.39 0 0 1 .268-.562l3.868-5.456c.181-.262.339-.54.47-.83a4.5 4.5 0 0 0 .305-2.764 4.608 4.608 0 0 0-2.086-3.013l-5.65-3.576a1.846 1.846 0 0 1-.378-.304.378.378 0 0 1-.101-.157s.12-.221.526-.433l3.055-1.548 2.899-1.475a4.6 4.6 0 0 0 2.003-6.313l-.083-.156-3.36-5.787a1.491 1.491 0 0 1-.213-.59v-.056c0-.055 0 0 .056 0 .19-.078.395-.112.6-.101h1.726l5.022.065a4.62 4.62 0 0 0 3.37-1.42 4.46 4.46 0 0 0 .987-1.566.966.966 0 0 0 .046-.175 4.776 4.776 0 0 0 .25-1.668l-.268-6.673c0-.451.092-.645.175-.672.215-.005.428.046.618.147l4.838 2.608 1.052.562c.07.042.144.076.221.102a4.623 4.623 0 0 0 6.194-2.194l2.871-6.027c.044-.096.097-.189.157-.276a.996.996 0 0 1 .213-.24c.04.01.078.03.11.056l.083.064c.115.102.217.216.305.341l2.53 3.76 1.2 1.788c.299.426.667.8 1.089 1.106a4.62 4.62 0 0 0 2.769.967c.31.001.62-.033.923-.101a4.555 4.555 0 0 0 1.911-.839l2.188-1.677L64.5 5.926c.16-.14.354-.235.563-.277.138.188.215.413.222.645l.72 6.636a4.604 4.604 0 0 0 1.874 3.243 4.621 4.621 0 0 0 3.498.84l6.6-1.07c.222-.054.453-.054.674 0a.184.184 0 0 1 0 .046 1.16 1.16 0 0 1-.11.618l-2.456 6.22a6.467 6.467 0 0 0-.148.452v.101a4.6 4.6 0 0 0 .286 3.115c.104.212.224.416.36.608a4.614 4.614 0 0 0 2.382 1.843l4.736 1.576 1.615.544c.19.052.365.143.517.267 0 0 .065.056.065.065a.69.69 0 0 1-.148.276 1.697 1.697 0 0 1-.259.268l-3.175 2.764-1.846 1.622a4.605 4.605 0 0 0-.323 6.737l4.615 4.82c.17.149.292.344.351.562a1.303 1.303 0 0 1-.572.24l-6.462 1.52a4.615 4.615 0 0 0-2.973 2.175 5.065 5.065 0 0 0-.35.756 4.169 4.169 0 0 0-.203.81 3.157 3.157 0 0 0-.61 2.673l1.847 6.451-6.38-1.65a4.068 4.068 0 0 0-.793-.129h-.406a4.753 4.753 0 0 0-.72.065h-.148c-.206.038-.41.09-.61.157l-.24.092a3.132 3.132 0 0 0-.36.166 4.396 4.396 0 0 0-.451.258l-.148.101a5.813 5.813 0 0 0-.628.535 4.608 4.608 0 0 0-1.957 2.92l-1.154 5.622c-.064.311-.026.635.111.922l-.166-.092a1.846 1.846 0 0 1-.23-.184l-4.958-4.488a4.616 4.616 0 0 0-1.218-.784 4.502 4.502 0 0 0-4.173.166 4.45 4.45 0 0 0-.665.452c-.246.197-.472.42-.673.663l-4.238 5.17a1.586 1.586 0 0 1-.332.323.647.647 0 0 1-.166.083h-.046a1.299 1.299 0 0 1-.305-.526l-1.55-4.22a1.436 1.436 0 0 0 .203-1.503l-.111-.285a4.611 4.611 0 0 0-2.53-2.7 4.548 4.548 0 0 0-1.246-.341 4.825 4.825 0 0 0-.738-.194 4.327 4.327 0 0 0-1.726 0 5.38 5.38 0 0 0-.924.277l-5.907 2.515a1.178 1.178 0 0 1 0-.175l.923-6.626a4.694 4.694 0 0 0-.988-3.566 4.618 4.618 0 0 0-3.019-1.668 4.289 4.289 0 0 0-.489-.148 4.715 4.715 0 0 0-.72-.129l-2.262-.184-4.43-.341zm5.88 3.88l1.467-.185a2.5 2.5 0 0 1 .37.332c.307.395.44.897.369 1.392l-.877 6.617a3.599 3.599 0 0 0 .73 2.912 2.845 2.845 0 0 0 1.753.921c.99.46 2.131.46 3.12 0l6.157-2.617c.224-.098.467-.148.711-.147.346.212.607.538.739.921l.074.203L17.33 87.982l-.332-10.045a1.448 1.448 0 0 0-1.302-1.392l-10.745-.921 20.152-18.118z"/>
    </g>
</svg>
