<svg xmlns="http://www.w3.org/2000/svg" width="103" height="75" viewBox="0 0 103 75">
    <g fill="#FFF" fill-rule="nonzero">
        <path d="M68 46.956c-.011.937.397 1.771 1 2.044v-4l-.118.07c-.525.303-.874 1.05-.882 1.886zM73 57c.19-.064.372-.14.545-.226.925-.403 1.481-1.144 1.454-1.937.02-.888-.82-1.66-1.999-1.837v4z"/>
        <path d="M63.086.72l-.301-.1-.108-.044A8.59 8.59 0 0 0 57.77.194h-.108l-.172.043c-15.456 4.226-36.014 9.794-46.132 12.455l-.222.072-.68.274c-3.777 1.01-6.786 1.565-8.492 1.565-.508-.01-1 .186-1.363.544-.364.358-.57.848-.571 1.36v1.392c-.011.117-.011.235 0 .353v17.524c-.09.507.032 1.029.336 1.442.359.496.932.788 1.541.786 5.252 0 8.82 2.827 12.955 6.094a59.79 59.79 0 0 0 2.723 2.113c3.805 2.827 8.599 5.712 15.464 5.712 2.909 0 5.266 0 7.165-.087h8.162C48.66 64.644 58.593 75 70.68 75c12.31 0 22.328-10.652 22.328-23.74 0-2.503-.38-4.99-1.125-7.378l.215.08c.342.107.692.189 1.046.244.846.15 1.712.136 2.551-.043 4.236-.51 7.395-4.174 7.302-8.466a8.684 8.684 0 0 0-2.329-5.943l-.1-.1a8.155 8.155 0 0 0-1.82-1.443L63.602 1.031a1.954 1.954 0 0 0-.516-.31zm7.595 71.742c-10.419 0-19.06-8.748-19.734-19.746h4.894a6.597 6.597 0 0 0 6.141-4.522c.2.803.548 1.562 1.025 2.236a8.379 8.379 0 0 0 5.016 3.23v1.335a8.77 8.77 0 0 1-.717-.721 2.231 2.231 0 0 0-1.784-.909c-.382.021-.755.122-1.096.296l-.136.072-1.92 1.175a2.166 2.166 0 0 0-1.069 1.897c.01.475.173.934.466 1.305.618.88 1.359 1.665 2.2 2.33a10.824 10.824 0 0 0 4.056 2.106v.814a2.315 2.315 0 0 0 2.278 2.344h1.856a2.315 2.315 0 0 0 2.279-2.344v-.8a10.136 10.136 0 0 0 3.34-1.5A7.224 7.224 0 0 0 81 55.01a6.446 6.446 0 0 0-1.319-4.22 8.852 8.852 0 0 0-5.21-3.057V47.4c.271.101.558.152.846.152a2.439 2.439 0 0 0 1.254-.354l.108-.065 2.078-1.391c.596-.385.966-1.04.989-1.753a2.062 2.062 0 0 0-.602-1.493 9.31 9.31 0 0 0-4.68-3.08v-1.11a2.322 2.322 0 0 0-2.278-2.35H70.33a2.322 2.322 0 0 0-2.279 2.35v1.003a9.127 9.127 0 0 0-1.884.678 7.356 7.356 0 0 0-3.991 4.103 6.909 6.909 0 0 0-3.519-4.493 6.174 6.174 0 0 0-2.816-.72h-1.218a19.46 19.46 0 0 1 16.058-8.82h.86l15.263 10.557 1.612 1.24a22.217 22.217 0 0 1 2.05 9.376c0 11.718-8.872 21.23-19.785 21.23zm7.524-29.128c.176.16.276.388.272.627a.866.866 0 0 1-.437.721l-2.056 1.4c-.196.105-.41.17-.63.194a1.264 1.264 0 0 1-.868-.339 5.51 5.51 0 0 0-1.261-.887v3.721c2.48.375 4.3 1.306 5.482 2.798a5.208 5.208 0 0 1 1.046 3.404 5.975 5.975 0 0 1-2.659 5.048 9.023 9.023 0 0 1-3.869 1.5v1.84a1.05 1.05 0 0 1-.284.747c-.19.202-.45.32-.726.327H70.33a1.036 1.036 0 0 1-.726-.327 1.05 1.05 0 0 1-.284-.748V61.53a10.219 10.219 0 0 1-6.5-4.176.88.88 0 0 1 .25-1.363l1.893-1.182c.174-.086.36-.144.552-.174a.958.958 0 0 1 .817.426 7.384 7.384 0 0 0 2.98 2.214v-4.63c-2.429-.397-4.191-1.37-5.273-2.885a5.484 5.484 0 0 1-.953-3.202c-.043-2.401 1.182-4.218 3.668-5.43a8.992 8.992 0 0 1 2.566-.743v-2.077a1.05 1.05 0 0 1 1.01-1.081h1.856a1.05 1.05 0 0 1 1.01 1.081v2.077a8.258 8.258 0 0 1 5.01 2.95zm-26.943-3.757a1.245 1.245 0 0 0-.078.209h-9.932a4.179 4.179 0 0 1-3.146-4.205 4.335 4.335 0 0 1 1.885-3.605l3.654-1.032 1.355-.39c1.69-.432 3.44-.922 5.159-1.441l.344-.094c7.423-2.099 12.181-3.418 13.421-3.75.352-.018.705-.001 1.053.05l3.44 2.38c-7.312.878-13.726 5.32-17.155 11.878zm45.258-8.265c.079.063.163.118.251.166a4.51 4.51 0 0 1 1.04.8l.05.058a4.841 4.841 0 0 1 1.325 3.36c.092 2.36-1.627 4.398-3.955 4.688a1.424 1.424 0 0 0-.244 0c-.406.09-.827.09-1.233 0a3.677 3.677 0 0 1-.48-.108 3.522 3.522 0 0 1-.602-.274 2.92 2.92 0 0 1-.358-.21l-.086-.057-3.776-2.884-.079-.065-21.547-14.863a1.693 1.693 0 0 0-.602-.274 8.424 8.424 0 0 0-2.701-.217 1.873 1.873 0 0 0-.351.05c-1.24.318-8.14 2.25-13.708 3.823l-.38.115c-1.705.52-3.396 1-5.073 1.443l-1.433.396-3.855 1.096a2.142 2.142 0 0 0-.445.188 8.182 8.182 0 0 0-3.948 7.038c-.071 3.89 2.652 7.264 6.45 7.99.107.008.214.008.322 0h13.643a2.224 2.224 0 0 1 1.933 2.211 2.224 2.224 0 0 1-1.933 2.21h-14.59c-1.884.065-4.198.087-7.072.087-5.732 0-9.716-2.373-13.163-4.94a40.01 40.01 0 0 1-2.694-2.034c-3.855-3.057-7.832-6.209-13.378-6.815V18.562a1.59 1.59 0 0 0 0-.26 54.012 54.012 0 0 0 7.674-1.6c.074-.017.146-.041.215-.073l.717-.267c10.153-2.66 30.625-8.235 46.039-12.418h.107a4.673 4.673 0 0 1 2.73.23l.158.066 33.556 25.962 1.476 1.11z"/>
    </g>
</svg>
