<svg xmlns="http://www.w3.org/2000/svg" width="82" height="85" viewBox="0 0 82 85">
    <g fill="#FFF" fill-rule="nonzero">
        <path d="M75.527 56.072c1.592-4.44 1.568-9.208 1.33-13.832-.324-6.237-.847-12.465-1.41-18.694-.364-3.973-3.24-6.674-6.798-6.674a6.666 6.666 0 0 0-3.558 1.033c1.252-4.402-.404-7.15-6.338-9.28a.064.064 0 0 1 0-.063c.118-3.178-.65-5.133-3.47-6.746-2.822-1.612-5.698-1.827-8.25 1.43 0 0-.697.882-.704.85A5.112 5.112 0 0 0 43.27.657a6.086 6.086 0 0 0-5.499 0 8.17 8.17 0 0 0-1.585.572 5.153 5.153 0 0 0-2.907 3.528s-.714-.794-.73-.794C29.872.784 27.09 1.093 24.286 2.849c-2.804 1.756-3.446 3.71-3.169 6.888a.072.072 0 0 1-.04.064c-5.388 2.177-7.13 4.767-6.235 8.549a6.593 6.593 0 0 0-3.344-.755c-3.55.135-6.339 2.948-6.529 6.936-.325 6.237-.602 12.49-.681 18.734-.056 4.664.103 9.367 1.87 13.76L0 67.236 29.578 85l6.727-11.242a19.146 19.146 0 0 0 4.453-1.827 20.038 20.038 0 0 0 5.254 2.057l7.13 10.972L82 66.012l-6.473-9.94zm-19.92-41.21c1.387-2.32 2.82-2.956 4.611-2.034 1.791.922 2.44 2.455 1.11 4.886a280.153 280.153 0 0 1-3.415 6.022l-3.962-6.11c.547-.953 1.101-1.842 1.656-2.764zm5.792 10.86c-.055.795-.119 1.59-.198 2.599a.063.063 0 0 1-.119 0c-.404-.556-.713-.962-.975-1.335a4.887 4.887 0 0 1 1.292-1.263zM48.626 6.743c1.244-2.065 2.742-2.74 4.382-2.073 2.195.897 2.75 2.971 1.37 5.299L51.78 14.29a1521.749 1521.749 0 0 0-4.01-6.126l.856-1.422zM36.931 69.833c-.686.245-1.387.444-2.1.596l-1.917 3.178-.46.794-4.452 7.421L3.558 67.124l4.128-6.904.578-.954 1.474-2.47a19.172 19.172 0 0 1-1.244-3.758 21.252 21.252 0 0 1-.452-4.116c-.087-8.032.15-16.065.349-24.097.055-2.193 1.45-3.63 3.17-3.718a3.272 3.272 0 0 1 3.335 2.193 4.622 4.622 0 0 0-1.363 1.12 8.487 8.487 0 0 0-.792 10.13 1367.708 1367.708 0 0 0 17.772 27.56 33.417 33.417 0 0 0 3.962 4.982c.897.918 1.85 1.78 2.852 2.582l-.396.16zm12.987 4.64l-.491-.747-2.037-3.122c-.717-.128-1.427-.3-2.123-.517a16.32 16.32 0 0 1-2.377-.945 22.477 22.477 0 0 1-8.573-7.802c-3.17-4.584-6.117-9.32-9.168-13.983-3.17-4.894-6.41-9.78-9.564-14.698-.546-.85-1.442-2.082-1.251-3.552.13-.946.684-1.78 1.505-2.264a3.66 3.66 0 0 1 3.17.048 7.144 7.144 0 0 1 2.25 2.494c1.497 2.24 2.955 4.513 4.437 6.77.72 1.096 1.442 2.192 2.179 3.28.737 1.09 2.274 4.37 4.057 3.115 1.64-1.152-.515-3.742-1.197-4.767-.681-1.025-1.418-2.193-2.147-3.305-3.28-5.164-6.64-10.28-9.786-15.516-1.426-2.384-.958-3.901.92-4.926 1.877-1.025 3.256-.405 4.714 1.843l11.505 17.63c.539.794.864 1.51 1.878 1.851a1.265 1.265 0 0 0 1.798-.652c.484-1.295.095-1.986-.586-3.019-4.527-6.917-9.046-13.832-13.557-20.744-1.474-2.272-.998-4.362 1.157-5.347 1.584-.73 3.17-.119 4.46 1.907a2565.171 2565.171 0 0 1 13.756 21.086c.745 1.144 1.648 2.113 2.98 1.176 1.33-.938.554-2.05-.12-3.075a3561.469 3561.469 0 0 1-10.601-16.247 9.543 9.543 0 0 1-1.197-2.289 3.257 3.257 0 0 1 .387-2.614 3.24 3.24 0 0 1 2.196-1.461c1.934-.342 2.876.794 3.764 2.192 6.006 9.225 12.004 18.449 18.09 27.625.562.842 1.734 1.835 2.598 1.812 1.585-.048 1.442-1.725 1.585-2.916.253-2.94.372-5.895.673-8.835.238-2.272 1.648-3.583 3.542-3.56 1.704 0 3.17 1.407 3.296 3.6.507 8.016 1.054 16.033 1.284 24.057.039 1.386-.06 2.773-.293 4.14-.12.677-.276 1.348-.468 2.01-.182.611-.388 1.2-.626 1.787l1.585 2.383.61.93 4.31 6.77-23.85 15.65-4.674-7.253z"/>
        <path d="M55.41 37.024a7.53 7.53 0 0 0-6.406 3.684A7.53 7.53 0 0 0 42.605 37c-3.274.061-6.146 2.181-7.145 5.274a8.332 8.332 0 0 0-.04 5.345c.029.086.063.17.104.252l1.175-.551-1.167.559 1.167-.551-1.167.55.047.11a7.577 7.577 0 0 0 2.057 3.047L49.02 63l11.773-12.358A8.281 8.281 0 0 0 63 45.013c0-4.4-3.406-7.99-7.59-7.99zm4.684 9.863a5.729 5.729 0 0 1-1.222 2.023L49.02 59.253l-9.527-9.997-.063-.063a4.558 4.558 0 0 1-.572-.606 5.443 5.443 0 0 1-.841-1.48c0-.11-.088-.204-.135-.307a5.884 5.884 0 0 1-.278-1.787c0-.64.107-1.276.317-1.881a5.059 5.059 0 0 1 4.676-3.534 5.008 5.008 0 0 1 4.525 3.148 2.04 2.04 0 0 0 1.874 1.222 2.04 2.04 0 0 0 1.874-1.222 5.016 5.016 0 0 1 4.533-3.148c2.746 0 4.985 2.432 4.985 5.415a5.938 5.938 0 0 1-.294 1.874z"/>
    </g>
</svg>
