<svg xmlns="http://www.w3.org/2000/svg" xmlns:xlink="http://www.w3.org/1999/xlink" width="40" height="40" viewBox="0 0 40 40">
    <defs>
        <path id="a" d="M.002.002H40v39.99H.002z"/>
    </defs>
    <g fill="none" fill-rule="evenodd">
        <g>
            <mask id="b" fill="#fff">
                <use xlink:href="#a"/>
            </mask>
            <path fill="#1877F2" d="M20 0C8.954 0 0 9.007 0 20.118 0 30.159 7.314 38.482 16.875 39.99V25.933h-5.078v-5.815h5.078v-4.432c0-5.042 2.986-7.827 7.554-7.827 2.188 0 4.477.392 4.477.392v4.951h-2.522c-2.484 0-3.259 1.551-3.259 3.142v3.774h5.547l-.887 5.815h-4.66v14.058C32.686 38.482 40 30.16 40 20.118 40 9.008 31.046 0 20 0z" mask="url(#b)"/>
        </g>
        <path fill="#FFF" d="M27.735 25.806l.884-5.771h-5.527V16.29c0-1.579.772-3.118 3.247-3.118h2.513V8.26s-2.28-.39-4.46-.39c-4.553 0-7.528 2.764-7.528 7.767v4.399h-5.06v5.771h5.06v13.951a20.044 20.044 0 0 0 6.228 0v-13.95h4.643"/>
    </g>
</svg>
