<svg width="32" height="32" viewBox="0 0 32 32" fill="none" xmlns="http://www.w3.org/2000/svg">
<path fill-rule="evenodd" clip-rule="evenodd" d="M16 0C7.16344 0 0 7.16344 0 16C0 24.8366 7.16344 32 16 32C24.8366 32 32 24.8366 32 16C32 7.16344 24.8366 0 16 0ZM12.4822 7.51824C13.3924 7.47682 13.6833 7.46668 16.0008 7.46668H15.9982C18.3164 7.46668 18.6062 7.47682 19.5164 7.51824C20.4249 7.55984 21.0453 7.70366 21.5893 7.91469C22.1511 8.13247 22.6258 8.42403 23.1004 8.8987C23.5751 9.37301 23.8667 9.84911 24.0853 10.4104C24.2951 10.9529 24.4391 11.573 24.4818 12.4815C24.5227 13.3917 24.5334 13.6826 24.5334 16.0001C24.5334 18.3176 24.5227 18.6078 24.4818 19.518C24.4391 20.4261 24.2951 21.0464 24.0853 21.5891C23.8667 22.1502 23.5751 22.6263 23.1004 23.1006C22.6263 23.5753 22.1509 23.8676 21.5899 24.0855C21.0469 24.2965 20.4261 24.4404 19.5177 24.482C18.6074 24.5234 18.3175 24.5335 15.9998 24.5335C13.6824 24.5335 13.3917 24.5234 12.4815 24.482C11.5732 24.4404 10.9529 24.2965 10.41 24.0855C9.84911 23.8676 9.37301 23.5753 8.89888 23.1006C8.42438 22.6263 8.13282 22.1502 7.91469 21.589C7.70384 21.0464 7.56002 20.4263 7.51824 19.5178C7.47699 18.6076 7.46668 18.3176 7.46668 16.0001C7.46668 13.6826 7.47735 13.3915 7.51806 12.4813C7.55895 11.5732 7.70295 10.9529 7.91451 10.4102C8.13318 9.84911 8.42474 9.37301 8.89941 8.8987C9.37372 8.4242 9.84982 8.13265 10.4111 7.91469C10.9537 7.70366 11.5737 7.55984 12.4822 7.51824Z" fill="white"/>
<path fill-rule="evenodd" clip-rule="evenodd" d="M15.234 9.00457C15.3827 9.00434 15.5426 9.00441 15.7151 9.00449L15.9995 9.00457C18.278 9.00457 18.548 9.01275 19.4477 9.05364C20.2798 9.09169 20.7313 9.23071 21.0321 9.34751C21.4303 9.50218 21.7143 9.68707 22.0128 9.98574C22.3114 10.2844 22.4963 10.5689 22.6513 10.9671C22.7681 11.2675 22.9073 11.7191 22.9452 12.5511C22.9861 13.4507 22.995 13.7209 22.995 15.9982C22.995 18.2756 22.9861 18.5458 22.9452 19.4454C22.9072 20.2774 22.7681 20.729 22.6513 21.0294C22.4967 21.4276 22.3114 21.7112 22.0128 22.0097C21.7141 22.3084 21.4305 22.4932 21.0321 22.6479C20.7317 22.7653 20.2798 22.9039 19.4477 22.942C18.5482 22.9829 18.278 22.9917 15.9995 22.9917C13.7209 22.9917 13.4509 22.9829 12.5513 22.942C11.7193 22.9036 11.2678 22.7645 10.9668 22.6477C10.5685 22.4931 10.2841 22.3082 9.98543 22.0095C9.68676 21.7108 9.50187 21.4271 9.34684 21.0287C9.23004 20.7283 9.09084 20.2767 9.05297 19.4447C9.01208 18.5451 9.00391 18.2749 9.00391 15.9961C9.00391 13.7173 9.01208 13.4485 9.05297 12.549C9.09102 11.717 9.23004 11.2654 9.34684 10.9646C9.50151 10.5664 9.68676 10.2819 9.98543 9.98325C10.2841 9.68458 10.5685 9.49969 10.9668 9.34467C11.2676 9.22733 11.7193 9.08866 12.5513 9.05044C13.3385 9.01489 13.6436 9.00422 15.234 9.00244V9.00457ZM20.5546 10.4215C19.9893 10.4215 19.5306 10.8796 19.5306 11.4452C19.5306 12.0105 19.9893 12.4692 20.5546 12.4692C21.1199 12.4692 21.5786 12.0105 21.5786 11.4452C21.5786 10.8798 21.1199 10.4212 20.5546 10.4212V10.4215ZM11.6173 16.0002C11.6173 13.5801 13.5793 11.618 15.9994 11.6179C18.4195 11.6179 20.3811 13.5801 20.3811 16.0002C20.3811 18.4203 18.4196 20.3816 15.9995 20.3816C13.5794 20.3816 11.6173 18.4203 11.6173 16.0002Z" fill="white"/>
<path d="M16.0007 13.1558C17.5716 13.1558 18.8452 14.4292 18.8452 16.0002C18.8452 17.5711 17.5716 18.8447 16.0007 18.8447C14.4297 18.8447 13.1562 17.5711 13.1562 16.0002C13.1562 14.4292 14.4297 13.1558 16.0007 13.1558V13.1558Z" fill="white"/>
</svg>
