<svg width="32" height="32" viewBox="0 0 32 32" fill="none" xmlns="http://www.w3.org/2000/svg">
<path fill-rule="evenodd" clip-rule="evenodd" d="M16 0C7.16344 0 0 7.16344 0 16C0 24.8366 7.16344 32 16 32C24.8366 32 32 24.8366 32 16C32 7.16344 24.8366 0 16 0ZM17.3028 21.0508C17.145 21.2171 16.837 21.2507 16.837 21.2507H15.817C15.817 21.2507 13.5665 21.3834 11.584 19.3579C9.42207 17.1481 7.51304 12.7637 7.51304 12.7637C7.51304 12.7637 7.40286 12.4761 7.52222 12.3376C7.65662 12.1811 8.02306 12.1713 8.02306 12.1713L10.4613 12.1557C10.4613 12.1557 10.6909 12.1926 10.8553 12.3114C10.9914 12.4097 11.0673 12.5924 11.0673 12.5924C11.0673 12.5924 11.4613 13.5707 11.983 14.4557C13.0022 16.1837 13.4764 16.5614 13.8219 16.3763C14.3261 16.1067 14.175 13.9337 14.175 13.9337C14.175 13.9337 14.1842 13.1455 13.9213 12.794C13.7176 12.5219 13.3336 12.4425 13.1642 12.4203C13.0264 12.4023 13.2518 12.0893 13.544 11.9492C13.983 11.7386 14.7577 11.7263 15.6734 11.7354C16.3871 11.7427 16.5924 11.7862 16.8712 11.8525C17.5183 12.0058 17.4981 12.497 17.4545 13.5571C17.4414 13.8741 17.4263 14.2421 17.4263 14.6671C17.4263 14.7626 17.4235 14.8644 17.4206 14.9691C17.4054 15.5122 17.3881 16.1341 17.7527 16.3656C17.9397 16.4836 18.3963 16.3828 19.539 14.4786C20.0808 13.5757 20.4864 12.5146 20.4864 12.5146C20.4864 12.5146 20.5758 12.3253 20.7135 12.2442C20.8546 12.1614 21.0449 12.1868 21.0449 12.1868L23.6108 12.1713C23.6108 12.1713 24.3821 12.0803 24.5065 12.4228C24.6376 12.7809 24.2185 13.6183 23.1701 14.9899C22.1756 16.2914 21.6916 16.7705 21.736 17.1943C21.7685 17.504 22.0831 17.784 22.6868 18.3337C23.9471 19.4823 24.2849 20.0866 24.366 20.2317C24.3727 20.2438 24.3777 20.2527 24.3813 20.2584C24.9464 21.1786 23.7544 21.2507 23.7544 21.2507L21.4748 21.2818C21.4748 21.2818 20.9856 21.3769 20.3412 20.9426C20.0036 20.7153 19.6738 20.3441 19.3596 19.9905C18.8798 19.4505 18.4365 18.9517 18.0582 19.0695C17.423 19.2678 17.4422 20.6108 17.4422 20.6108C17.4422 20.6108 17.4472 20.8984 17.3028 21.0508Z" fill="white"/>
</svg>
