<svg xmlns="http://www.w3.org/2000/svg" width="130" height="55" viewBox="0 0 130 55">
    <g fill="#000" fill-rule="nonzero">
        <path d="M24.64 6.922C26.148 5.034 27.225 2.517 26.9 0c-2.26.105-4.95 1.468-6.564 3.251-1.399 1.574-2.69 4.196-2.367 6.608 2.582.315 5.058-1.049 6.672-2.937m2.26 3.566c-3.66-.21-6.78 1.993-8.502 1.993-1.722 0-4.412-1.888-7.318-1.888a10.836 10.836 0 0 0-9.147 5.454C-1.94 22.655.858 32.409 4.732 37.757c1.83 2.623 4.09 5.56 6.995 5.455 2.798-.105 3.874-1.783 7.21-1.783s4.305 1.783 7.318 1.678c3.013-.105 4.95-2.622 6.78-5.35 2.152-3.04 3.013-5.978 3.013-6.083-.107-.104-5.919-2.202-5.919-8.705-.107-5.454 4.52-8.076 4.735-8.18-2.475-3.776-6.564-4.196-7.963-4.3M58.435 2.946c8.02 0 13.55 5.393 13.55 13.112 0 7.825-5.637 13.217-13.767 13.217h-8.78v13.64h-6.395V2.946h15.392zm-8.997 21.148H56.7c5.529 0 8.672-2.96 8.672-7.93 0-5.076-3.143-7.93-8.672-7.93h-7.37v15.86h.108zm24.172 10.68c0-5.076 4.01-8.248 11.165-8.671l8.238-.423v-2.22c0-3.278-2.277-5.182-5.962-5.182-3.577 0-5.745 1.692-6.287 4.23h-5.853c.325-5.287 4.986-9.2 12.357-9.2 7.262 0 11.923 3.702 11.923 9.623v20.09h-5.853v-4.758h-.109c-1.734 3.278-5.528 5.287-9.43 5.287-6.07 0-10.189-3.595-10.189-8.776zm19.403-2.644v-2.326l-7.371.423c-3.686.211-5.745 1.797-5.745 4.335 0 2.538 2.168 4.23 5.42 4.23 4.335 0 7.696-2.855 7.696-6.662zm11.598 21.676v-4.864c.433.106 1.517.106 1.95.106 2.82 0 4.337-1.163 5.312-4.124 0-.105.542-1.797.542-1.797l-10.84-29.184h6.613l7.587 23.791h.109l7.587-23.79h6.504l-11.164 30.769c-2.602 7.084-5.529 9.305-11.707 9.305-.434-.106-1.951-.106-2.493-.212z"/>
    </g>
</svg>
