<svg xmlns="http://www.w3.org/2000/svg" width="134" height="52" viewBox="0 0 134 52">
    <g fill="none" fill-rule="nonzero">
        <path fill="#5F6368" d="M63.43 25.614V41h-4.91V3.003h13.022a11.814 11.814 0 0 1 8.433 3.29 10.546 10.546 0 0 1 3.523 8.018 10.498 10.498 0 0 1-3.523 8.065c-2.277 2.158-5.088 3.237-8.433 3.235H63.43v.003zm0-17.933v13.264h8.234a6.51 6.51 0 0 0 4.859-1.965 6.457 6.457 0 0 0 1.973-4.643c0-1.75-.712-3.424-1.973-4.643a6.424 6.424 0 0 0-4.859-2.016H63.43v.003zM94.833 15c3.6 0 6.443.94 8.527 2.82 2.083 1.88 3.124 4.457 3.122 7.732v15.62h-4.66v-3.517h-.211C99.593 40.552 96.91 42 93.562 42c-2.858 0-5.25-.828-7.174-2.483A7.85 7.85 0 0 1 83.5 33.31c0-2.622 1.015-4.708 3.044-6.257 2.03-1.549 4.739-2.325 8.128-2.329 2.892 0 5.274.517 7.146 1.552v-1.088a5.368 5.368 0 0 0-2.012-4.212 6.994 6.994 0 0 0-4.702-1.735c-2.721 0-4.874 1.122-6.46 3.364l-4.29-2.64C86.715 16.656 90.207 15 94.833 15zM88.53 33.414a3.774 3.774 0 0 0 1.616 3.103 6.035 6.035 0 0 0 3.785 1.242 7.861 7.861 0 0 0 5.48-2.223c1.614-1.484 2.42-3.225 2.42-5.223-1.518-1.182-3.636-1.773-6.354-1.773-1.978 0-3.629.466-4.95 1.398-1.334.946-1.997 2.095-1.997 3.476zM133.461 15L117.18 52h-5.034l6.043-12.946L107.48 15h5.3l7.739 18.448h.106L128.152 15z"/>
        <path fill="#4285F4" d="M44.53 22.33c.002-1.45-.124-2.9-.376-4.33H23.547v8.203H35.35c-.489 2.647-2.065 4.985-4.365 6.472V38h7.044c4.125-3.707 6.501-9.188 6.501-15.67z"/>
        <path fill="#34A853" d="M23.067 43c5.891 0 10.852-1.863 14.469-5.075l-7.038-5.256c-1.958 1.28-4.48 2.01-7.431 2.01-5.694 0-10.527-3.698-12.255-8.679h-7.25v5.417C7.268 38.517 14.815 43 23.067 43z"/>
        <path fill="#FBBC04" d="M10.557 26.262a13.059 13.059 0 0 1 0-8.524V12H2.99a21.822 21.822 0 0 0 0 20l7.566-5.738z"/>
        <path fill="#EA4335" d="M22.989 8.323c3.1-.05 6.097 1.083 8.34 3.153l6.207-6C33.6 1.902 28.387-.06 22.989 0c-8.22 0-15.736 4.482-19.427 11.583L10.782 17c1.722-4.981 6.536-8.677 12.207-8.677z"/>
    </g>
</svg>
