<svg xmlns="http://www.w3.org/2000/svg" width="108" height="85" viewBox="0 0 108 85">
    <g fill="none" fill-rule="nonzero">
        <path fill="#231F20" d="M105.42 83.857v.22h.199c.044 0 .081-.01.109-.027a.098.098 0 0 0 .04-.084.094.094 0 0 0-.04-.081.187.187 0 0 0-.11-.028h-.198zm.201-.154c.102 0 .182.023.238.07a.237.237 0 0 1 .084.193c0 .069-.021.125-.067.17a.322.322 0 0 1-.19.081l.263.31h-.205l-.244-.308h-.08v.309h-.171v-.825h.372zm-.052 1.11a.685.685 0 0 0 .67-.694.714.714 0 0 0-.196-.49.655.655 0 0 0-.474-.2.683.683 0 0 0-.266.051.673.673 0 0 0-.36.369.682.682 0 0 0-.051.27c0 .096.016.186.052.27a.652.652 0 0 0 .36.368.649.649 0 0 0 .265.056m0-1.584a.874.874 0 0 1 .813.544.868.868 0 0 1 .069.346.868.868 0 0 1-.07.345.922.922 0 0 1-.187.282.948.948 0 0 1-.28.191.85.85 0 0 1-.345.07.863.863 0 0 1-.35-.07.907.907 0 0 1-.281-.19.922.922 0 0 1-.189-.283.868.868 0 0 1-.069-.345c0-.123.023-.238.07-.345a.873.873 0 0 1 .47-.474.863.863 0 0 1 .349-.07M24.135 80.05c0-1.572 1.005-2.865 2.648-2.865 1.57 0 2.63 1.237 2.63 2.865 0 1.629-1.06 2.865-2.63 2.865-1.643 0-2.648-1.292-2.648-2.865m7.066 0v-4.474h-1.897v1.087c-.602-.806-1.516-1.312-2.757-1.312-2.448 0-4.367 1.967-4.367 4.7 0 2.734 1.92 4.699 4.367 4.699 1.241 0 2.155-.506 2.757-1.312v1.087H31.2V80.05zm64.134 0c0-1.572 1.006-2.865 2.649-2.865 1.571 0 2.629 1.237 2.629 2.865 0 1.629-1.058 2.865-2.63 2.865-1.642 0-2.648-1.292-2.648-2.865m7.07 0v-8.067h-1.9v4.68c-.603-.806-1.516-1.312-2.758-1.312-2.447 0-4.366 1.967-4.366 4.7 0 2.734 1.919 4.699 4.366 4.699 1.242 0 2.155-.506 2.757-1.312v1.087h1.9V80.05zm-47.646-2.957c1.223 0 2.01.787 2.21 2.171h-4.53c.203-1.292.968-2.17 2.32-2.17m.038-1.743c-2.558 0-4.347 1.91-4.347 4.7 0 2.845 1.862 4.699 4.475 4.699 1.314 0 2.518-.337 3.578-1.254l-.93-1.442c-.732.598-1.664.936-2.54.936-1.222 0-2.336-.58-2.61-2.192h6.481a9.46 9.46 0 0 0 .038-.748c-.019-2.79-1.7-4.699-4.145-4.699m22.916 4.7c0-1.573 1.006-2.866 2.649-2.866 1.57 0 2.629 1.237 2.629 2.865 0 1.629-1.06 2.865-2.63 2.865-1.642 0-2.648-1.292-2.648-2.865m7.067 0v-4.474h-1.898v1.087c-.604-.806-1.515-1.312-2.757-1.312-2.447 0-4.366 1.967-4.366 4.7 0 2.734 1.919 4.699 4.366 4.699 1.242 0 2.153-.506 2.757-1.312v1.087h1.898V80.05zm-17.785 0c0 2.715 1.844 4.7 4.657 4.7 1.315 0 2.19-.3 3.14-1.067l-.912-1.573c-.713.525-1.46.805-2.284.805-1.516-.019-2.63-1.142-2.63-2.865 0-1.722 1.114-2.845 2.63-2.865.823 0 1.571.281 2.284.806l.911-1.573c-.949-.767-1.824-1.067-3.139-1.067-2.813 0-4.657 1.984-4.657 4.7m24.47-4.7c-1.096 0-1.809.525-2.302 1.312v-1.087h-1.88v8.949h1.899v-5.017c0-1.48.62-2.303 1.862-2.303.385 0 .786.055 1.188.225l.585-1.835c-.42-.169-.968-.244-1.353-.244m-50.876.937c-.913-.618-2.171-.937-3.56-.937-2.21 0-3.634 1.087-3.634 2.865 0 1.46 1.06 2.36 3.012 2.64l.897.13c1.04.15 1.532.432 1.532.937 0 .692-.694 1.087-1.99 1.087-1.315 0-2.264-.431-2.903-.937l-.895 1.515c1.041.787 2.356 1.162 3.78 1.162 2.52 0 3.98-1.217 3.98-2.921 0-1.573-1.149-2.396-3.049-2.676l-.894-.133c-.822-.112-1.48-.279-1.48-.879 0-.656.62-1.048 1.662-1.048 1.114 0 2.192.431 2.72.767l.822-1.572zm24.488-.937c-1.095 0-1.808.525-2.299 1.312v-1.087h-1.88v8.949h1.897v-5.017c0-1.48.62-2.303 1.862-2.303.385 0 .786.055 1.187.225l.586-1.835c-.42-.169-.968-.244-1.353-.244m-16.196.225h-3.104v-2.715h-1.919v2.715h-1.77v1.779h1.77v4.082c0 2.076.786 3.313 3.031 3.313.824 0 1.772-.262 2.374-.692l-.547-1.668c-.567.337-1.187.506-1.68.506-.95 0-1.259-.6-1.259-1.498v-4.043h3.104v-1.779zm-28.378 8.949v-5.617c0-2.115-1.315-3.538-3.434-3.557-1.114-.02-2.264.337-3.068 1.592-.602-.992-1.551-1.592-2.885-1.592-.932 0-1.843.28-2.556 1.329v-1.104h-1.9v8.949h1.917v-4.961c0-1.554.84-2.379 2.138-2.379 1.26 0 1.898.843 1.898 2.36v4.98h1.919v-4.961c0-1.554.875-2.379 2.136-2.379 1.296 0 1.916.843 1.916 2.36v4.98h1.919z"/>
        <path fill="#F79410" d="M106.516 55v-1.22h-.316l-.366.838-.364-.838h-.318V55h.225v-.92l.342.794h.232l.342-.796V55h.223zm-2.006 0v-1.012h.405v-.206h-1.034v.206h.406V55h.223z"/>
        <path fill="#FF5F00" d="M68.731 60H39.895V8h28.836z"/>
        <path fill="#EB001B" d="M41.11 34c0-10.661 4.932-20.158 12.61-26.278C48.105 3.247 41.018.576 33.317.576 15.083.576.303 15.54.303 34s14.78 33.424 33.014 33.424c7.701 0 14.788-2.671 20.403-7.146C46.042 54.158 41.11 44.66 41.11 34"/>
        <path fill="#F79E1B" d="M107.51 34c0 18.46-14.81 33.424-33.08 33.424-7.717 0-14.818-2.671-20.447-7.146A33.487 33.487 0 0 0 66.62 34 33.487 33.487 0 0 0 53.983 7.722C59.612 3.247 66.713.576 74.43.576 92.7.576 107.51 15.54 107.51 34"/>
    </g>
</svg>
