<svg xmlns="http://www.w3.org/2000/svg" width="259" height="37" viewBox="0 0 259 37">
    <path fill="#034EA2" fill-rule="nonzero" d="M221.068.68v2.153A12.59 12.59 0 0 0 213.128 0c-7.199 0-13.083 6.233-13.083 13.882 0 7.65 5.827 13.882 13.082 13.882a12.59 12.59 0 0 0 7.941-2.833v2.38h5.999V.68h-5.999zm-7.255 21.871c-4.342 0-7.884-3.853-7.884-8.669 0-4.816 3.542-8.612 7.884-8.612 4.342 0 7.884 3.853 7.884 8.669 0 4.816-3.542 8.612-7.884 8.612zM183.59 0c-2.913 0-5.77 1.02-7.998 2.946V.68h-6.055V37h5.998V24.874c2.228 1.87 5.085 2.89 7.998 2.947 7.199 0 13.083-6.233 13.083-13.882 0-7.65-5.77-13.939-13.026-13.939zm-.685 22.551c-4.342 0-7.884-3.853-7.884-8.669 0-4.816 3.542-8.67 7.884-8.67 4.342 0 7.884 3.854 7.884 8.67s-3.542 8.67-7.884 8.67zM252.604.68l-7.713 18.132L236.665.68h-5.942l11.312 24.931L237.179 37h5.884L258.488.68h-5.884zM131.375 4.363l.286 17.565h-.114l-5.2-17.565h-8.397v22.155h5.541l-.285-18.189h.114l5.599 18.189h8.055V4.363h-5.599zm-106.26 0l-4.17 22.381h6.112l3.085-20.341h.114l3.028 20.341h6.056L35.17 4.363H25.114zm34.106 0l-2.8 17.112h-.114L53.565 4.363H44.31l-.514 22.381h5.656l.114-20.115h.114l3.828 20.115h5.713L62.99 6.63h.115l.114 20.115h5.656L68.36 4.363h-9.14zM11.46 20.398c.171.567.171 1.133.057 1.7-.172.737-.686 1.473-2.228 1.473-1.429 0-2.285-.793-2.285-2.04v-2.21H.949v1.7c0 4.987 3.942 6.517 8.226 6.517 4.114 0 7.427-1.36 7.999-5.1a9.979 9.979 0 0 0 0-3.683c-.972-4.703-9.541-6.063-10.17-8.726a4.152 4.152 0 0 1 0-1.19c.172-.736.629-1.53 2.057-1.53 1.086-.113 2 .68 2.114 1.7V10.71h5.656V9.123c0-4.873-4.4-5.667-7.598-5.667-4 0-7.313 1.304-7.884 4.987a6.914 6.914 0 0 0 0 3.06c.914 4.702 8.912 6.005 10.112 8.895m73.354 0c.171.51.171 1.077.057 1.643-.172.737-.686 1.474-2.171 1.474-1.371 0-2.228-.794-2.228-1.984v-2.153h-5.999v1.7c0 4.93 3.942 6.403 8.113 6.403 4.056 0 7.37-1.36 7.884-5.043a9.677 9.677 0 0 0 0-3.626c-.972-4.59-9.484-6.006-10.055-8.613a3.768 3.768 0 0 1 0-1.133c.171-.737.628-1.473 2.056-1.473 1.029-.114 2 .68 2.057 1.7v1.643h5.542V9.349c0-4.816-4.342-5.61-7.541-5.61-4 0-7.199 1.304-7.827 4.93a7.614 7.614 0 0 0 .057 3.003c.971 4.533 8.912 5.836 10.055 8.726m18.967 2.947c1.028.113 1.942-.624 2.17-1.587.058-.283.058-.567.058-.85V4.363h5.713v16.035c0 .397-.057 1.247-.057 1.473-.4 4.193-3.714 5.553-7.884 5.553s-7.484-1.36-7.884-5.553c0-.226-.057-1.076-.057-1.473V4.363h5.713v16.545c0 .283 0 .567.057.85.228 1.02 1.142 1.7 2.17 1.587m47.075-.227c1.657 0 2.228-1.02 2.286-1.587.057-.283.057-.566.057-.85v-3.23h-2.286v-3.286h7.999v6.007c0 .396 0 .736-.058 1.473-.342 4.08-3.941 5.553-7.94 5.553-4 0-7.542-1.474-7.942-5.553-.057-.737-.057-1.077-.057-1.473v-9.463c0-.51.057-.963.115-1.473.514-4.193 3.942-5.553 7.94-5.553 4 0 7.485 1.303 7.942 5.553.057.51.057.963.057 1.473v.737h-5.713v-1.247c0-.283 0-.567-.057-.85-.115-.51-.515-1.643-2.286-1.643-1.085-.113-2 .623-2.228 1.643-.057.34-.114.68-.114 1.077V20.68c0 .284 0 .567.057.85 0 .567.572 1.587 2.228 1.587"/>
</svg>
