<svg xmlns="http://www.w3.org/2000/svg" width="110" height="36" viewBox="0 0 110 36">
    <g fill="none" fill-rule="evenodd">
        <path fill="#2566AF" fill-rule="nonzero" d="M47.713 34.714h-8.841l5.525-33.646h8.842l-5.526 33.646zM31.435 1.068L23.006 24.21l-.997-4.983v.002L19.036 4.098s-.36-3.03-4.194-3.03H.907l-.163.57s4.26.878 9.247 3.846l7.681 29.23h9.212L40.949 1.069h-9.514zm69.537 33.646h8.118l-7.078-33.647h-7.107c-3.282 0-4.08 2.508-4.08 2.508L77.638 34.714h9.216l1.843-4.998h11.238l1.036 4.998zm-9.728-11.902l4.645-12.59 2.613 12.59h-7.258zM78.33 9.16l1.262-7.225S75.699.467 71.64.467c-4.387 0-14.806 1.9-14.806 11.138 0 8.693 12.228 8.8 12.228 13.366 0 4.566-10.968 3.748-14.588.869l-1.314 7.555s3.948 1.9 9.979 1.9c6.033 0 15.135-3.096 15.135-11.52 0-8.748-12.338-9.562-12.338-13.366 0-3.804 8.61-3.315 12.394-1.25z"/>
        <path fill="#E6A540" fill-rule="nonzero" d="M22.538 19L19.601 4.003S19.246 1 15.46 1H1.7l-.162.565s6.614 1.363 12.957 6.47C20.561 12.916 22.538 19 22.538 19z"/>
        <path d="M-9.462-46h128V82h-128z"/>
    </g>
</svg>
