<svg xmlns="http://www.w3.org/2000/svg" width="287" height="125" viewBox="0 0 287 125">
    <g fill="none" fill-rule="nonzero">
        <path fill="#FFDA34" d="M166 73h121v24H166z"/>
        <circle cx="2" cy="31" r="2" fill="#909AA5"/>
        <circle cx="12" cy="31" r="2" fill="#909AA5"/>
        <circle cx="22" cy="31" r="2" fill="#909AA5"/>
        <circle cx="32" cy="31" r="2" fill="#909AA5"/>
        <circle cx="2" cy="21" r="2" fill="#909AA5"/>
        <circle cx="12" cy="21" r="2" fill="#909AA5"/>
        <circle cx="22" cy="21" r="2" fill="#909AA5"/>
        <circle cx="32" cy="21" r="2" fill="#909AA5"/>
        <circle cx="2" cy="12" r="2" fill="#909AA5"/>
        <circle cx="12" cy="12" r="2" fill="#909AA5"/>
        <circle cx="22" cy="12" r="2" fill="#909AA5"/>
        <circle cx="32" cy="12" r="2" fill="#909AA5"/>
        <circle cx="2" cy="2" r="2" fill="#909AA5"/>
        <circle cx="12" cy="2" r="2" fill="#909AA5"/>
        <circle cx="22" cy="2" r="2" fill="#909AA5"/>
        <circle cx="32" cy="2" r="2" fill="#909AA5"/>
        <path fill="#282F39" d="M46 81l.022-33h23.824v6.41h-16.06v6.18h15.32v6.273h-15.32v7.714H70v6.41zM73 81l.018-33h7.478v26.577H95v6.414zM97 81l.019-33h23.83v6.413h-16.061v6.18h15.32v6.273h-15.323v7.711H121v6.414zM139.498 71.19l-7.857-10.269v20.067H124L124.019 48h6.793l9.665 12.641 9.976-12.629H157L156.981 81h-7.675V60.983l-7.766 10.211zM161 81V48h23.849v6.413h-16.074v6.18h15.333v6.273h-15.336v7.711H185V81zM212.869 80.994L195.503 60.68v20.298H188l.019-32.94h6.022l17.41 20.036V48H219l-.019 33zM238.22 54.423V81h-7.472l.016-26.574H221V48l27 .016v6.413z"/>
        <path fill="#FFDA34" d="M13 82h33v33H13z"/>
        <path fill="#606C7C" d="M56 125H21V90h35v35zm-32.23-2.77h29.46V92.77H23.77v29.46zM267.5 52a9.5 9.5 0 1 1 9.5-9.5 9.512 9.512 0 0 1-9.5 9.5zm0-17.485a7.985 7.985 0 1 0 7.985 7.985 7.994 7.994 0 0 0-7.985-7.985zM10 91a8 8 0 1 1 8-8 8.012 8.012 0 0 1-8 8zm0-14.485A6.485 6.485 0 1 0 16.485 83 6.495 6.495 0 0 0 10 76.515z"/>
        <rect width="1" height="8" x="64.756" y="94" fill="#606C7C" rx=".5"/>
        <path fill="#606C7C" d="M65.002 103c-.552 0-1-.47-1.002-1.051v-7.953c.03-.559.468-.996 1-.996s.97.437 1 .996v7.953c0 .58-.447 1.051-.998 1.051z"/>
        <rect width="8" height="1" x="61" y="97.756" fill="#606C7C" rx=".5"/>
        <path fill="#606C7C" d="M69.01 98.998h-7.904a1.062 1.062 0 0 1-.956-.482.961.961 0 0 1 0-1.032c.2-.317.568-.503.956-.482h7.904c.555.029.99.467.99.998 0 .53-.435.97-.99.998z"/>
        <rect width="1" height="17" x="55" y="18" fill="#606C7C" rx=".5"/>
        <path fill="#606C7C" d="M54.998 36a.989.989 0 0 1-.998-.976V18.921A.99.99 0 0 1 55 18a.99.99 0 0 1 1 .92v16.104a.989.989 0 0 1-1.002.976zm0-17.11a.044.044 0 0 0-.044.043v16.104c0 .05.089.05.092 0V18.933a.047.047 0 0 0-.048-.043z"/>
        <rect width="17" height="1" x="47" y="26" fill="#606C7C" rx=".5"/>
        <path fill="#606C7C" d="M63.077 28H46.923A.992.992 0 0 1 46 27c0-.531.405-.97.923-1h16.154c.518.03.923.469.923 1s-.405.97-.923 1zm-16.154-1.046a.044.044 0 0 0-.043.044c0 .026.019.046.043.048h16.154a.047.047 0 0 0 .043-.048.044.044 0 0 0-.043-.044H46.923z"/>
        <rect width="1" height="13" x="243" y="16" fill="#FFDA34" rx=".5"/>
        <path fill="#FFDA34" d="M243.002 31c-1.104-.002-1.998-.864-2.002-1.93V16.856c.043-1.037.926-1.856 2-1.856 1.074 0 1.957.819 2 1.856V29.07c-.004 1.065-.896 1.927-1.998 1.93z"/>
        <rect width="13" height="1" x="237" y="22" fill="#FFDA34" rx=".5"/>
        <path fill="#FFDA34" d="M249.079 25H236.92c-1.06 0-1.921-.895-1.921-2s.86-2 1.921-2h12.158c1.06 0 1.921.895 1.921 2s-.86 2-1.921 2z"/>
    </g>
</svg>
