<?xml version="1.0" encoding="UTF-8"?> <svg xmlns="http://www.w3.org/2000/svg" width="103" height="64" viewBox="0 0 103 64" fill="none"><path d="M54.5914 38.9084H102.551V50.8189H54.5914V38.9084Z" fill="#FDDA34"></path><path d="M28.703 36.2504H32.3258L30.5145 30.5734L28.703 36.2504ZM34.1593 41.9939L33.3861 39.5639H27.6427L26.8696 41.9939H23.0038L28.2612 26.5309H32.7676L38.025 41.9939H34.1593Z" fill="#282F39"></path><path d="M42.1797 41.9939L37.1432 26.5309H41.009L44.433 37.9072L47.8569 26.5309H51.7226L46.6861 41.9939H42.1797Z" fill="#282F39"></path><path d="M56.5821 38.5919H62.7672V41.9939H53.0477V26.5309H62.6567V29.9327H56.5821V32.4953H62.1045V35.8529H56.5821V38.5919Z" fill="#282F39"></path><path d="M68.2928 29.8444V33.8206H70.9435C71.9154 33.8206 72.7107 32.959 72.7107 31.8324C72.7107 30.7058 71.9154 29.8444 70.9435 29.8444H68.2928ZM72.8875 41.9939L69.9716 36.9132H68.2928V41.9939H64.7584V26.5309H70.9435C72.4236 26.5309 73.6606 27.0389 74.6989 28.0771C75.7371 29.1154 76.245 30.3525 76.245 31.8324C76.245 33.7102 75.0965 35.4331 73.3956 36.3167L76.6868 41.9939H72.8875Z" fill="#282F39"></path><path d="M77.3457 38.4841L80.394 36.7168C81.0127 38.1528 82.095 38.8596 83.6415 38.8596C85.033 38.8596 85.7398 38.44 85.7398 37.6006C85.7398 37.1366 85.519 36.7832 85.0551 36.5402C84.6133 36.275 83.7739 35.9659 82.5368 35.6345C81.2336 35.2811 80.3498 34.8836 79.4002 34.1765C78.4943 33.4476 77.9864 32.3432 77.9864 30.9294C77.9864 29.4936 78.4943 28.3669 79.5105 27.5054C80.5487 26.644 81.7637 26.2242 83.1774 26.2242C85.7179 26.2242 87.7059 27.4391 88.8325 29.7145L85.8503 31.4596C85.298 30.2887 84.525 29.6703 83.1774 29.6703C82.1171 29.6703 81.5209 30.2004 81.5209 30.8409C81.5209 31.2166 81.6974 31.5479 82.0509 31.8351C82.4264 32.1221 83.1774 32.4315 84.3041 32.7628L85.7398 33.2268C86.0713 33.3372 86.5132 33.5359 87.0213 33.8231C87.5513 34.0883 87.9489 34.3753 88.2139 34.6846C88.7662 35.2811 89.2743 36.2972 89.2743 37.5564C89.2743 39.0364 88.7443 40.1851 87.6838 41.0465C86.6235 41.8859 85.2318 42.3057 83.531 42.3057C80.372 42.3057 78.2292 40.8477 77.3457 38.4841Z" fill="#282F39"></path><path d="M2.22347 1.11184C2.22347 1.72581 1.72573 2.22355 1.11163 2.22355C0.497793 2.22355 5.45979e-05 1.72581 5.45979e-05 1.11184C5.45979e-05 0.497872 0.497793 2.38419e-07 1.11163 2.38419e-07C1.72573 2.38419e-07 2.22347 0.497872 2.22347 1.11184Z" fill="#909DA6"></path><path d="M7.41227 1.11184C7.41227 1.72581 6.91453 2.22355 6.30043 2.22355C5.68659 2.22355 5.18885 1.72581 5.18885 1.11184C5.18885 0.497872 5.68659 2.38419e-07 6.30043 2.38419e-07C6.91453 2.38419e-07 7.41227 0.497872 7.41227 1.11184Z" fill="#909DA6"></path><path d="M12.6011 1.11184C12.6011 1.72581 12.1033 2.22355 11.4892 2.22355C10.8755 2.22355 10.3777 1.72581 10.3777 1.11184C10.3777 0.497872 10.8755 2.38419e-07 11.4892 2.38419e-07C12.1033 2.38419e-07 12.6011 0.497872 12.6011 1.11184Z" fill="#909DA6"></path><path d="M17.7898 1.11184C17.7898 1.72581 17.2921 2.22355 16.678 2.22355C16.0642 2.22355 15.5664 1.72581 15.5664 1.11184C15.5664 0.497872 16.0642 2.38419e-07 16.678 2.38419e-07C17.2921 2.38419e-07 17.7898 0.497872 17.7898 1.11184Z" fill="#909DA6"></path><path d="M2.22347 6.03772C2.22347 6.65169 1.72573 7.14943 1.11163 7.14943C0.497793 7.14943 5.45979e-05 6.65169 5.45979e-05 6.03772C5.45979e-05 5.42375 0.497793 4.92588 1.11163 4.92588C1.72573 4.92588 2.22347 5.42375 2.22347 6.03772Z" fill="#909DA6"></path><path d="M7.41227 6.03772C7.41227 6.65169 6.91453 7.14943 6.30043 7.14943C5.68659 7.14943 5.18885 6.65169 5.18885 6.03772C5.18885 5.42375 5.68659 4.92588 6.30043 4.92588C6.91453 4.92588 7.41227 5.42375 7.41227 6.03772Z" fill="#909DA6"></path><path d="M12.6011 6.03772C12.6011 6.65169 12.1033 7.14943 11.4892 7.14943C10.8755 7.14943 10.3777 6.65169 10.3777 6.03772C10.3777 5.42375 10.8755 4.92588 11.4892 4.92588C12.1033 4.92588 12.6011 5.42375 12.6011 6.03772Z" fill="#909DA6"></path><path d="M17.7898 6.03772C17.7898 6.65169 17.2921 7.14943 16.678 7.14943C16.0642 7.14943 15.5664 6.65169 15.5664 6.03772C15.5664 5.42375 16.0642 4.92588 16.678 4.92588C17.2921 4.92588 17.7898 5.42375 17.7898 6.03772Z" fill="#909DA6"></path><path d="M2.22347 10.9607C2.22347 11.5747 1.72573 12.0723 1.11176 12.0723C0.497793 12.0723 0.000187397 11.5747 0.000187397 10.9607C0.000187397 10.3467 0.497793 9.84898 1.11176 9.84898C1.72573 9.84898 2.22347 10.3467 2.22347 10.9607Z" fill="#909DA6"></path><path d="M7.41227 10.9607C7.41227 11.5747 6.91453 12.0723 6.30056 12.0723C5.68659 12.0723 5.18898 11.5747 5.18898 10.9607C5.18898 10.3467 5.68659 9.84898 6.30056 9.84898C6.91453 9.84898 7.41227 10.3467 7.41227 10.9607Z" fill="#909DA6"></path><path d="M12.6011 10.9607C12.6011 11.5747 12.1033 12.0723 11.4894 12.0723C10.8755 12.0723 10.3778 11.5747 10.3778 10.9607C10.3778 10.3467 10.8755 9.84898 11.4894 9.84898C12.1033 9.84898 12.6011 10.3467 12.6011 10.9607Z" fill="#909DA6"></path><path d="M17.7898 10.9607C17.7898 11.5747 17.2921 12.0723 16.6781 12.0723C16.0642 12.0723 15.5665 11.5747 15.5665 10.9607C15.5665 10.3467 16.0642 9.84898 16.6781 9.84898C17.2921 9.84898 17.7898 10.3467 17.7898 10.9607Z" fill="#909DA6"></path><path d="M2.22347 15.8834C2.22347 16.4973 1.72573 16.9951 1.11163 16.9951C0.497793 16.9951 5.45979e-05 16.4973 5.45979e-05 15.8834C5.45979e-05 15.2694 0.497793 14.7715 1.11163 14.7715C1.72573 14.7715 2.22347 15.2694 2.22347 15.8834Z" fill="#909DA6"></path><path d="M7.41227 15.8834C7.41227 16.4973 6.91453 16.9951 6.30043 16.9951C5.68659 16.9951 5.18885 16.4973 5.18885 15.8834C5.18885 15.2694 5.68659 14.7715 6.30043 14.7715C6.91453 14.7715 7.41227 15.2694 7.41227 15.8834Z" fill="#909DA6"></path><path d="M12.6011 15.8834C12.6011 16.4973 12.1033 16.9951 11.4892 16.9951C10.8755 16.9951 10.3777 16.4973 10.3777 15.8834C10.3777 15.2694 10.8755 14.7715 11.4892 14.7715C12.1033 14.7715 12.6011 15.2694 12.6011 15.8834Z" fill="#909DA6"></path><path d="M17.7898 15.8834C17.7898 16.4973 17.2921 16.9951 16.678 16.9951C16.0642 16.9951 15.5664 16.4973 15.5664 15.8834C15.5664 15.2694 16.0642 14.7715 16.678 14.7715C17.2921 14.7715 17.7898 15.2694 17.7898 15.8834Z" fill="#909DA6"></path><path d="M32.4352 13.2607H28.7033V9.52877C28.7033 9.26562 28.49 9.05229 28.2268 9.05229C27.9637 9.05229 27.7503 9.26562 27.7503 9.52877V13.2607H24.0184C23.7553 13.2607 23.5421 13.474 23.5421 13.7372C23.5421 14.0002 23.7553 14.2135 24.0184 14.2135H27.7503V17.9456C27.7503 18.2087 27.9637 18.4219 28.2268 18.4219C28.49 18.4219 28.7033 18.2087 28.7033 17.9456V14.2135H32.4352C32.6984 14.2135 32.9116 14.0002 32.9116 13.7372C32.9116 13.474 32.6984 13.2607 32.4352 13.2607Z" fill="#5F6C7C"></path><path d="M88.2581 15.0876H86.1935V13.0231C86.1935 12.4531 85.7314 11.9909 85.1614 11.9909C84.5913 11.9909 84.1291 12.4531 84.1291 13.0231V15.0876H82.0646C81.4945 15.0876 81.0323 15.5498 81.0323 16.1199C81.0323 16.69 81.4945 17.1522 82.0646 17.1522H84.1291V19.2166C84.1291 19.7867 84.5913 20.2489 85.1614 20.2489C85.7314 20.2489 86.1935 19.7867 86.1935 19.2166V17.1522H88.2581C88.8282 17.1522 89.2904 16.69 89.2904 16.1199C89.2904 15.5498 88.8282 15.0876 88.2581 15.0876Z" fill="#FDDA34"></path><path d="M6.47516 41.9284H22.9911V58.4444H6.47516V41.9284Z" fill="#FDDA34"></path><path d="M5.35961 45.8981C3.43002 45.8981 1.86587 44.3338 1.86587 42.4042C1.86587 40.4748 3.43002 38.9105 5.35961 38.9105C7.28906 38.9105 8.85334 40.4748 8.85334 42.4042C8.85334 44.3338 7.28906 45.8981 5.35961 45.8981ZM5.35961 38.1165C2.9918 38.1165 1.07178 40.0364 1.07178 42.4042C1.07178 44.772 2.9918 46.6922 5.35961 46.6922C7.72742 46.6922 9.64731 44.772 9.64731 42.4042C9.64731 40.0364 7.72742 38.1165 5.35961 38.1165Z" fill="#5F6C7C"></path><path d="M97.4703 30.4393C95.2191 30.4393 93.394 28.6144 93.394 26.3632C93.394 24.1122 95.2191 22.2871 97.4703 22.2871C99.7213 22.2871 101.546 24.1122 101.546 26.3632C101.546 28.6144 99.7213 30.4393 97.4703 30.4393ZM97.4703 21.3609C94.7078 21.3609 92.4678 23.6009 92.4678 26.3632C92.4678 29.1257 94.7078 31.3657 97.4703 31.3657C100.233 31.3657 102.473 29.1257 102.473 26.3632C102.473 23.6009 100.233 21.3609 97.4703 21.3609Z" fill="#5F6C7C"></path><path d="M27.2754 62.5707H11.8711V47.1663H27.2754V62.5707ZM10.4417 64H28.7045V45.7371H10.4417V64Z" fill="#5F6C7C"></path><path d="M35.216 49.4715H33.7868V48.0422C33.7868 47.7353 33.5379 47.4865 33.2309 47.4865C32.9241 47.4865 32.6751 47.7353 32.6751 48.0422V49.4715H31.2458C30.9388 49.4715 30.69 49.7203 30.69 50.0274C30.69 50.3342 30.9388 50.5832 31.2458 50.5832H32.6751V52.0124C32.6751 52.3194 32.9241 52.5682 33.2309 52.5682C33.5379 52.5682 33.7868 52.3194 33.7868 52.0124V50.5832H35.216C35.523 50.5832 35.772 50.3342 35.772 50.0274C35.772 49.7203 35.523 49.4715 35.216 49.4715Z" fill="#5F6C7C"></path></svg> 